<svg version="1.1" id="Layer_1" xmlns="http://www.w3.org/2000/svg" xmlns:xlink="http://www.w3.org/1999/xlink" x="0px" y="0px"
	 width="100%" viewBox="0 0 554 113" enable-background="new 0 0 554 113" xml:space="preserve">
<path fill="#343333" opacity="1.000000" stroke="none" 
	d="
M324.000000,114.000000 
	C216.380966,114.000000 108.761940,114.000000 1.071455,114.000000 
	C1.071455,76.397751 1.071455,38.795330 1.071455,1.000000 
	C185.020844,1.000000 369.041779,1.000000 553.532532,1.468654 
	C553.960815,10.615592 553.919189,19.293877 553.531372,27.894573 
	C552.708191,27.678816 552.218018,27.574764 551.756226,27.396940 
	C548.722900,26.228846 545.508911,25.870687 544.019592,29.241928 
	C543.248169,30.988041 543.564026,33.915741 544.574524,35.596790 
	C546.477173,38.762035 549.580627,38.109901 552.464050,36.538704 
	C552.894592,36.304123 553.394714,36.197239 553.909424,36.495911 
	C553.970825,62.640362 553.985413,88.320183 554.000000,114.000000 
	C483.979095,114.000000 413.958221,114.000000 343.520844,113.698174 
	C342.220673,112.085266 341.337006,110.774193 340.458954,109.471512 
	C340.730682,108.455528 342.096771,106.148735 341.439606,105.023109 
	C340.771393,103.878471 337.642700,103.003296 336.437622,103.632027 
	C334.902802,104.432793 333.752960,106.751945 333.306671,108.623840 
	C332.914856,110.267380 333.722260,112.196831 334.000000,114.000000 
	C332.285797,114.000000 330.571594,114.000000 328.291016,113.715080 
	C327.520660,111.479660 327.316650,109.529160 327.056244,107.039131 
	C326.185913,106.690132 324.715332,106.100426 322.264557,105.117683 
	C322.956482,108.659042 323.478241,111.329521 324.000000,114.000000 
M96.934052,55.957474 
	C96.934052,55.957474 97.006554,55.942085 97.337799,55.576286 
	C97.543068,55.317646 97.733376,55.048435 97.741013,54.862907 
	C97.741013,54.862907 97.646950,54.695068 98.335938,54.543293 
	C99.302567,52.755157 100.269196,50.967018 101.883469,48.949997 
	C104.062477,46.293255 106.787636,43.902664 108.252022,40.897675 
	C109.478836,38.380211 108.944214,35.065418 109.721535,32.250584 
	C110.490715,29.465212 109.180305,29.059200 106.869308,28.758686 
	C106.869308,28.758686 106.917694,28.465685 106.679146,27.963207 
	C106.472557,27.659145 106.265968,27.355085 105.956306,27.020033 
	C105.956306,27.020033 105.987129,26.916908 105.816010,26.393290 
	C105.514870,25.932158 105.213737,25.471024 104.982269,25.011322 
	C104.982269,25.011322 104.978554,25.080910 104.657547,24.695042 
	C104.409615,24.470787 104.161674,24.246531 103.981407,24.018785 
	C103.981407,24.018785 103.978264,24.086470 103.667557,23.703121 
	C103.448509,23.456259 103.207191,23.233519 102.950012,23.054256 
	C102.950012,23.054256 102.923683,23.050072 102.864662,22.348846 
	C102.244843,18.900509 100.115273,19.117641 96.855011,20.112530 
	C91.925499,20.107378 86.995995,20.102226 81.143219,19.954952 
	C75.702774,20.007126 70.262329,20.059299 63.914322,19.989050 
	C56.930576,20.335016 49.946831,20.680983 42.383984,21.070368 
	C42.150726,21.349815 41.917473,21.629263 41.695496,21.700220 
	C41.695496,21.700220 41.487000,21.689039 40.842968,21.835606 
	C38.594318,24.899364 36.345665,27.963125 33.984314,31.872171 
	C36.134979,37.538700 38.285641,43.205231 39.722889,49.162315 
	C37.658772,50.050201 35.594654,50.938087 33.608704,51.792347 
	C33.919468,53.638729 34.224510,54.918293 34.337406,56.214596 
	C34.813057,61.676094 37.972858,63.331154 42.630268,60.461468 
	C43.752140,59.770218 44.741627,58.864117 46.213856,58.625195 
	C49.536308,64.546700 52.858761,70.468201 56.190289,77.192627 
	C57.289730,78.645020 58.389168,80.097404 59.341881,81.698524 
	C59.341881,81.698524 59.515678,81.582581 59.304253,82.292686 
	C59.073261,85.512611 66.430183,92.717720 70.406441,93.112717 
	C70.561882,93.128159 70.767586,92.637611 70.714539,92.711761 
	C69.741699,90.707436 68.872032,88.915688 68.671883,87.037766 
	C69.117218,87.092323 69.562553,87.146873 70.626999,87.496002 
	C72.919312,88.544189 75.211624,89.592369 78.515099,91.102921 
	C77.985832,88.506493 77.673225,86.972916 77.389099,85.335655 
	C77.389099,85.335655 77.493561,85.361092 78.304108,85.522629 
	C82.457832,85.867775 82.829254,83.246315 82.516243,80.175194 
	C82.516243,80.175194 82.460083,80.133385 82.949394,79.633163 
	C83.233109,79.261406 83.516823,78.889656 83.739319,78.582756 
	C83.739319,78.582756 83.666595,78.531128 84.436584,78.562218 
	C87.250938,77.802582 90.065300,77.042938 93.678383,76.067719 
	C92.128036,74.353279 91.064148,73.176796 90.000000,72.000000 
	C90.000000,72.000000 89.999695,71.999748 90.208290,71.312843 
	C90.840401,69.238487 91.472519,67.164139 92.628624,64.636208 
	C92.885445,63.775204 93.142258,62.914200 93.299950,61.965324 
	C93.299950,61.965324 93.386040,61.864643 94.040718,61.708748 
	C94.692497,61.138783 95.344276,60.568817 95.976570,59.222042 
	C95.942825,58.704079 95.909073,58.186111 95.987579,57.258568 
	C95.987579,57.258568 96.280685,56.951256 96.545570,56.675236 
	C96.711288,56.479675 96.845825,56.264606 96.934052,55.957474 
M322.990479,41.009159 
	C322.990479,41.009159 323.005432,40.959892 323.318390,41.346462 
	C323.544952,41.590607 323.794495,41.808434 323.998108,41.972324 
	C323.998108,41.972324 324.025848,41.903442 324.260254,42.403557 
	C325.124725,42.207478 325.989166,42.011402 326.883911,41.290409 
	C326.919983,40.941792 326.956055,40.593174 326.687439,39.772915 
	C326.423645,39.509953 326.159851,39.246986 325.556152,38.749870 
	C325.340424,38.574184 325.160645,38.367237 324.654633,37.708488 
	C324.362427,37.482224 324.070251,37.255959 323.054718,36.911167 
	C319.680786,35.594757 316.302429,33.200401 312.252808,37.044682 
	C310.013062,39.975624 306.849823,42.586105 305.701294,45.895718 
	C301.766754,57.233746 306.662628,67.494385 316.480408,69.894989 
	C320.834900,70.959717 325.680542,67.858894 326.780457,62.526585 
	C325.115570,63.670578 323.991241,64.471565 322.838867,65.230019 
	C318.027588,68.396690 312.529755,67.044998 309.654663,62.000820 
	C306.195892,55.932590 307.097717,46.456059 312.152954,40.705936 
	C312.440674,40.459637 312.728394,40.213337 313.019165,40.023907 
	C313.019165,40.023907 312.964935,40.006462 313.338104,39.791531 
	C313.579193,39.633198 313.800171,39.450546 314.554962,39.069008 
	C314.937561,39.014568 315.320190,38.960133 316.448853,39.259476 
	C318.319702,39.493755 320.190582,39.728035 322.014465,40.000626 
	C322.014465,40.000626 321.996643,39.942692 322.305084,40.331104 
	C322.523560,40.581528 322.768463,40.802658 322.990479,41.009159 
M151.017899,39.987972 
	C151.017899,39.987972 151.012512,40.009499 150.761887,39.617130 
	C150.573822,39.366867 150.350769,39.153099 150.040253,38.961555 
	C150.040253,38.961555 150.065826,38.913532 149.882080,38.243279 
	C148.565964,37.508381 147.249847,36.773483 145.991074,36.002655 
	C145.991074,36.002655 146.021454,36.063103 145.364624,35.659920 
	C142.906662,35.795841 140.448685,35.931767 138.007889,36.007881 
	C138.007889,36.007881 138.059128,36.043171 137.499466,36.195831 
	C136.997253,36.479275 136.495056,36.762718 135.988693,36.987679 
	C135.988693,36.987679 136.044601,37.005348 135.656387,37.256863 
	C135.405869,37.439095 135.182816,37.650330 134.954056,37.949505 
	C134.954056,37.949505 134.886444,37.951195 134.337692,38.201935 
	C133.894592,38.610989 133.451508,39.020046 132.721451,40.008579 
	C131.778717,41.575260 130.777405,43.110027 129.903351,44.714123 
	C125.969078,51.934307 128.230240,62.472557 134.703476,67.241425 
	C140.762909,71.705437 149.123550,69.856071 151.202362,62.735481 
	C149.419342,63.539551 148.077637,63.927322 146.981857,64.675339 
	C141.423492,68.469658 135.261292,67.172226 133.569702,60.747009 
	C132.281418,55.853661 132.244827,50.150661 133.395645,45.214539 
	C134.897293,38.773598 141.514679,37.059444 147.405441,40.400139 
	C148.433182,40.982986 149.929535,40.739513 151.262482,40.641346 
	C151.267441,40.386101 151.178604,40.167236 151.017899,39.987972 
M252.852646,60.382797 
	C252.852646,60.382797 252.896103,60.379993 253.308853,60.826553 
	C253.450974,60.971088 253.593094,61.115620 253.682190,61.327995 
	C253.682190,61.327995 253.736038,61.288292 254.170364,62.067974 
	C254.653976,62.817806 255.137589,63.567638 255.678268,64.521919 
	C255.678268,64.521919 255.972473,64.836296 256.456177,65.791153 
	C256.616974,66.109665 256.777771,66.428169 256.865997,66.921463 
	C256.870758,67.133148 256.942261,67.318840 257.049774,67.713776 
	C257.049774,67.713776 256.997437,67.945145 257.300659,68.524902 
	C260.535522,70.985619 261.699646,68.361946 261.714478,66.127525 
	C261.776398,56.790985 261.429810,47.451733 260.999512,37.576927 
	C260.014893,37.750893 259.030243,37.924858 257.648804,38.802620 
	C257.426697,43.186222 257.439087,47.600761 256.866791,51.938160 
	C256.638550,53.668037 255.118744,55.227501 253.754242,56.324028 
	C250.155548,50.687004 246.556854,45.049980 242.861496,39.128830 
	C242.861496,39.128830 242.679108,38.890495 242.468857,38.337212 
	C241.577469,37.809059 240.686096,37.280903 239.794708,36.752747 
	C239.396591,37.758625 238.669052,38.759327 238.653152,39.771210 
	C238.539368,47.013870 238.555389,54.258823 238.565399,61.503002 
	C238.568115,63.474339 238.583893,65.459328 238.834488,67.407074 
	C238.897537,67.897171 239.890060,68.267693 240.455444,68.693169 
	C240.645721,68.129272 240.835983,67.565384 241.104935,66.332947 
	C241.083237,65.885353 241.061523,65.437767 241.163818,64.764435 
	C241.229889,64.500793 241.189499,64.256378 241.128418,63.137493 
	C241.100311,60.742908 241.072205,58.348328 241.165283,55.738396 
	C241.227676,55.483139 241.185913,55.248005 241.107315,54.347134 
	C241.081711,53.889034 241.056122,53.430935 241.204178,52.437859 
	C241.168396,51.541676 241.132614,50.645496 241.178543,48.404774 
	C241.152206,47.046169 241.125870,45.687561 241.977676,44.633228 
	C245.285904,49.286747 248.594116,53.940266 251.848969,58.624138 
	C251.848969,58.624138 251.934448,58.652729 252.447113,59.502735 
	C252.597549,59.797447 252.747971,60.092155 252.852646,60.382797 
M202.562256,68.928101 
	C202.562256,68.928101 203.004013,68.842560 203.535721,68.787041 
	C203.895859,68.218781 204.255997,67.650520 204.789032,66.145523 
	C204.734177,60.393436 204.679306,54.641354 204.590256,48.254581 
	C204.576736,48.043144 204.563202,47.831711 205.450348,47.432880 
	C206.364395,47.355686 207.278458,47.278496 208.502350,47.704929 
	C208.603439,47.874134 208.704544,48.043335 208.813705,48.415157 
	C208.813705,48.415157 209.068741,48.726593 209.462952,49.318546 
	C213.692932,55.801376 217.922913,62.284206 222.699997,68.848122 
	C223.132706,68.569138 223.565430,68.290154 224.223099,67.230652 
	C224.148376,57.484642 224.073654,47.738628 223.920547,37.509090 
	C223.279510,37.673569 222.638489,37.838047 221.778183,38.783337 
	C221.547394,45.691330 221.316589,52.599319 221.085785,59.507313 
	C220.492828,59.604084 219.899872,59.700855 219.306915,59.797626 
	C215.169205,53.266682 211.031494,46.735733 206.736694,39.581547 
	C205.475372,38.583469 204.214035,37.585388 202.446899,36.780373 
	C202.283783,36.856018 202.120667,36.931664 201.585617,37.743469 
	C201.378281,45.104240 201.037460,52.464836 201.027832,59.825867 
	C201.023849,62.868526 201.729980,65.912117 202.562256,68.928101 
M346.603577,67.509277 
	C347.030823,68.163231 347.458069,68.817184 347.885315,69.471146 
	C348.338409,68.662804 348.791504,67.854462 349.275787,66.284828 
	C349.298248,65.523323 349.320679,64.761810 349.614655,63.239105 
	C349.521790,58.829708 349.428955,54.420311 349.302094,49.256325 
	C349.314392,48.501331 349.326691,47.746338 349.587921,46.395226 
	C349.506409,44.930332 349.424896,43.465439 349.320862,41.413750 
	C349.330902,41.022491 349.340912,40.631233 350.139252,40.141895 
	C352.415466,39.766869 354.691650,39.391842 357.433014,38.734634 
	C357.057770,37.954506 356.673492,36.491234 356.308655,36.496067 
	C350.204468,36.576958 344.102692,36.841316 337.746094,37.608006 
	C338.737183,38.380112 339.630371,39.571735 340.741150,39.830917 
	C342.645477,40.275257 344.685760,40.136799 346.709534,41.148232 
	C346.743256,49.773178 346.776978,58.398125 346.603577,67.509277 
M537.000000,42.000000 
	C537.000000,42.000000 537.006958,42.004513 536.757690,42.535713 
	C536.214233,43.423729 535.670715,44.311749 534.907288,45.559124 
	C538.796143,46.068985 541.730225,44.493202 541.298645,41.474995 
	C540.765686,37.748295 538.426025,34.267658 536.719421,30.752335 
	C536.619385,30.546230 534.870117,30.691139 534.458496,31.166441 
	C532.959473,32.897137 530.627747,34.813183 530.584534,36.704433 
	C530.501526,40.342232 533.342834,42.033432 537.000000,42.000000 
M278.736298,66.096748 
	C278.706268,62.399376 278.080261,58.544731 278.990448,55.095463 
	C279.283386,53.985348 283.663940,54.069439 286.079742,53.306969 
	C286.566040,53.153481 286.623657,51.641788 286.204681,50.477024 
	C285.564362,50.339520 284.924438,50.085701 284.283630,50.083309 
	C280.000153,50.067310 279.177460,47.237663 279.164032,43.801182 
	C279.148834,39.911934 281.972626,40.089146 284.678589,39.936523 
	C287.105499,39.799644 289.518127,39.410378 292.431976,38.828983 
	C291.638519,37.961872 290.905762,36.425007 290.040863,36.346642 
	C286.756195,36.049026 283.421753,36.357296 280.119232,36.184731 
	C276.507935,35.996029 275.062225,37.453735 275.123383,41.110481 
	C275.261780,49.386536 275.054138,57.668537 275.207581,65.944031 
	C275.232117,67.265915 276.397888,68.566650 277.959534,69.957382 
	C282.934235,69.447586 288.278107,71.277542 292.931763,68.733032 
	C292.879944,68.097717 292.828094,67.462410 292.776276,66.827095 
	C288.213013,66.827095 283.649750,66.827095 278.736298,66.096748 
M378.901428,64.761414 
	C379.255890,67.103394 379.554352,70.051682 382.731293,69.284645 
	C384.410980,68.879105 386.215240,66.751427 386.913300,64.986069 
	C388.349884,61.353062 389.081024,57.441101 390.102478,53.643940 
	C390.761444,53.705288 391.420380,53.766632 392.079315,53.827976 
	C393.138153,57.907993 393.938477,62.083466 395.391510,66.017906 
	C395.923218,67.457588 397.908508,69.012543 399.409607,69.219971 
	C400.464539,69.365746 402.246094,67.540863 402.938202,66.200859 
	C403.825287,64.483208 403.980621,62.376507 404.388184,60.424255 
	C405.965118,52.870411 407.516937,45.311321 409.074677,37.770954 
	C403.107971,36.538658 403.002563,36.572838 401.823181,41.307613 
	C400.971771,44.725616 400.216522,48.167557 399.418365,51.598820 
	C398.898224,51.600151 398.378082,51.601482 397.857910,51.602814 
	C396.874725,48.016792 396.121124,44.343319 394.803558,40.884674 
	C394.217072,39.345158 392.494324,38.238487 391.287323,36.935349 
	C389.935852,38.263828 387.971954,39.359215 387.359314,40.968895 
	C386.048065,44.413860 385.435516,48.124763 384.536804,51.726746 
	C383.988556,51.724422 383.440308,51.722095 382.892059,51.719772 
	C382.139771,48.455688 381.155853,45.224155 380.691467,41.919609 
	C380.054657,37.387867 377.986969,35.840225 373.021942,37.840599 
	C374.937103,46.579327 376.842621,55.274132 378.901428,64.761414 
M476.152283,67.105865 
	C476.163422,64.612541 475.927002,62.082363 476.290375,59.641479 
	C476.471497,58.425026 477.508789,56.772270 478.572754,56.342987 
	C485.215881,53.662754 489.328583,56.458519 489.508148,63.519051 
	C489.525055,64.183861 489.280975,65.018578 489.592682,65.482155 
	C490.545685,66.899406 491.710876,68.173973 492.793518,69.504059 
	C493.906464,68.217583 495.935425,66.963966 495.982971,65.639259 
	C496.280762,57.337204 496.281555,49.014179 495.987579,40.712021 
	C495.941925,39.422810 493.880280,38.204990 492.750885,36.954136 
	C491.679474,38.255745 490.214508,39.408142 489.648376,40.901321 
	C489.092010,42.368744 489.607330,44.207607 489.347321,45.834721 
	C489.178497,46.891178 488.547058,48.675240 487.978577,48.733864 
	C484.729858,49.068878 481.300140,49.529034 478.233154,48.754234 
	C477.118622,48.472664 476.791595,44.916241 476.197968,42.827648 
	C476.022827,42.211494 476.419098,41.339931 476.114197,40.871193 
	C475.212555,39.485146 474.303192,37.447414 473.013245,37.103539 
	C470.074738,36.320194 469.505859,38.581024 469.517883,41.032970 
	C469.557861,49.178989 469.474915,57.326679 469.634094,65.469933 
	C469.659058,66.746048 470.578979,68.978416 471.292450,69.065247 
	C472.792145,69.247772 474.429504,68.299042 476.152283,67.105865 
M444.350891,45.857094 
	C444.386200,52.342388 444.244537,58.837238 444.593689,65.305603 
	C444.671265,66.743233 446.261993,68.988419 447.532684,69.293571 
	C450.487640,70.003204 450.948792,67.567604 450.945801,65.197556 
	C450.939056,59.875042 451.097412,54.546829 450.897919,49.231842 
	C450.746216,45.190418 451.230316,42.344021 456.441284,42.918701 
	C457.532562,43.039051 458.846344,41.141895 460.057556,40.174419 
	C458.776611,39.097492 457.546356,37.170765 456.205902,37.090759 
	C450.405548,36.744553 444.564117,36.768456 438.759064,37.069981 
	C437.505768,37.135082 436.341156,38.907375 435.135681,39.893299 
	C436.254456,40.947399 437.219666,42.292561 438.529846,42.983879 
	C440.271393,43.902790 442.281860,44.312054 444.350891,45.857094 
M165.297028,41.952057 
	C162.021988,48.231678 162.107727,54.759010 164.272400,61.260796 
	C166.069931,66.659790 170.065811,69.426865 175.455643,69.627525 
	C180.786545,69.825989 185.623886,67.424042 187.034363,62.062408 
	C188.374786,56.967030 188.618256,51.320847 188.042511,46.059269 
	C187.494888,41.054661 184.068008,37.301643 178.739059,36.207302 
	C173.358704,35.102406 168.922134,36.749031 165.297028,41.952057 
M418.682220,39.179352 
	C418.654114,47.828991 418.621155,56.478622 418.601288,65.128281 
	C418.596222,67.337555 418.442932,69.586594 421.721008,69.647423 
	C424.787079,69.704315 425.204071,67.892349 425.187897,65.437561 
	C425.134125,57.286514 425.235596,49.133934 425.126282,40.983967 
	C425.064301,36.361713 423.295593,35.675114 418.682220,39.179352 
M527.885132,40.696308 
	C527.339661,36.596512 524.438843,35.234447 521.163879,36.411674 
	C519.437073,37.032383 517.223022,40.162334 517.544861,41.662441 
	C517.969971,43.643738 520.414856,46.094940 522.443115,46.628857 
	C525.967102,47.556522 527.831970,45.092960 527.885132,40.696308 
M15.220048,60.137077 
	C11.632544,58.126194 8.596478,59.456253 7.782238,62.901073 
	C7.283550,65.010887 8.596074,68.451195 10.286681,69.950462 
	C12.459544,71.877419 15.383801,71.064308 17.416056,67.756470 
	C15.732053,67.566864 14.548260,67.433586 14.420555,67.419205 
	C14.893701,64.980553 15.316037,62.803776 15.220048,60.137077 
M366.505035,104.269913 
	C371.612518,102.267403 369.083649,98.763031 367.742035,96.052437 
	C365.792358,92.113350 362.796600,93.241631 359.964844,95.036995 
	C360.250244,96.768471 360.925201,98.273987 360.634308,99.561249 
	C359.561829,104.306938 361.721497,105.307999 366.505035,104.269913 
M508.727905,40.985516 
	C511.045563,48.656296 512.125671,49.769527 516.200623,48.412281 
	C513.916687,44.025845 511.676941,39.724312 509.437195,35.422783 
	C508.830048,35.700550 508.222870,35.978317 507.615723,36.256084 
	C507.912140,37.604855 508.208557,38.953625 508.727905,40.985516 
M350.822021,99.149124 
	C349.074066,99.755203 345.986908,100.108742 345.816498,101.012306 
	C345.174469,104.416748 346.596558,107.377121 349.464325,109.791245 
	C350.074707,105.805679 350.543152,102.746880 350.822021,99.149124 
M23.917891,61.731876 
	C23.917891,59.822132 23.917891,57.912392 23.917891,54.653625 
	C22.213285,56.393982 20.390125,57.414120 20.413927,58.389172 
	C20.484707,61.288521 20.252205,64.661880 24.582504,66.743813 
	C24.393126,64.789551 24.276430,63.585335 23.917891,61.731876 
M376.062225,97.888985 
	C375.016693,95.339592 373.971161,92.790199 372.532928,89.283348 
	C370.614594,93.573151 372.247345,99.456497 374.658661,100.193939 
	C374.972443,100.289909 375.676666,99.109276 376.062225,97.888985 
z"/>
<path fill="#8B8B8B" opacity="1.000000" stroke="none" 
	d="
M554.500000,114.000000 
	C553.985413,88.320183 553.970825,62.640362 553.958740,36.050415 
	C553.933350,32.750912 553.905457,30.361536 553.877563,27.972160 
	C553.919189,19.293877 553.960815,10.615592 554.001221,1.468655 
	C554.333313,2.333334 554.955933,3.666247 554.957886,5.000062 
	C555.010681,41.333317 555.000000,77.666664 554.500000,114.000000 
z"/>
<path fill="#414141" opacity="1.000000" stroke="none" 
	d="
M334.449982,114.000000 
	C333.722260,112.196831 332.914856,110.267380 333.306671,108.623840 
	C333.752960,106.751945 334.902802,104.432793 336.437622,103.632027 
	C337.642700,103.003296 340.771393,103.878471 341.439606,105.023109 
	C342.096771,106.148735 340.730682,108.455528 340.458954,109.471512 
	C341.337006,110.774193 342.220673,112.085266 343.052185,113.698174 
	C340.299988,114.000000 337.599976,114.000000 334.449982,114.000000 
z"/>
<path fill="#414141" opacity="1.000000" stroke="none" 
	d="
M324.399994,114.000000 
	C323.478241,111.329521 322.956482,108.659042 322.264557,105.117683 
	C324.715332,106.100426 326.185913,106.690132 327.056244,107.039131 
	C327.316650,109.529160 327.520660,111.479660 327.862305,113.715080 
	C326.933319,114.000000 325.866669,114.000000 324.399994,114.000000 
z"/>
<path fill="#38313B" opacity="1.000000" stroke="none" 
	d="
M107.052635,28.992315 
	C109.180305,29.059200 110.490715,29.465212 109.721535,32.250584 
	C108.944214,35.065418 109.478836,38.380211 108.252022,40.897675 
	C106.787636,43.902664 104.062477,46.293255 101.496933,49.018246 
	C101.110405,49.086494 100.989456,48.991718 101.063995,48.630508 
	C102.141655,45.679504 103.144768,43.089710 104.147881,40.499916 
	C103.537117,40.227917 102.926361,39.955917 102.315598,39.683918 
	C100.247696,43.484856 98.179794,47.285789 95.886986,51.342075 
	C93.741180,54.989594 91.820282,58.381760 89.631287,61.947937 
	C88.239792,63.107273 87.116402,64.092606 85.609520,65.098007 
	C80.883873,66.576378 76.985748,65.884544 73.972649,62.334923 
	C70.863647,58.672337 75.148315,56.458359 75.971588,53.559898 
	C76.105919,53.086960 76.359566,52.647907 76.781052,51.955757 
	C79.509300,47.192410 82.014557,42.666500 84.720062,37.845886 
	C86.441292,32.574646 85.740501,28.045765 82.390442,23.766441 
	C82.723145,23.250278 82.873024,23.055176 83.342972,22.885807 
	C84.085449,22.855469 84.507866,22.799395 85.386063,22.832607 
	C88.004639,22.957869 90.167877,22.976284 92.330124,23.032988 
	C99.917427,23.231962 103.635818,26.915438 103.860878,34.373264 
	C103.906792,35.894604 104.120766,37.410873 104.334892,39.793030 
	C108.542740,36.175064 106.835518,32.375904 107.052635,28.992315 
z"/>
<path fill="#383439" opacity="1.000000" stroke="none" 
	d="
M92.104637,65.089783 
	C91.472519,67.164139 90.840401,69.238487 89.938232,71.722740 
	C89.533684,72.406349 89.399193,72.680069 89.264694,72.953781 
	C89.509888,72.635956 89.755074,72.318130 90.000267,72.000305 
	C91.064148,73.176796 92.128036,74.353279 93.678383,76.067719 
	C90.065300,77.042938 87.250938,77.802582 83.928970,78.603638 
	C81.918083,79.040901 80.022614,78.988274 78.974663,79.904755 
	C71.721809,86.247673 65.235527,85.364426 60.385189,77.109634 
	C56.265022,70.097511 52.189373,63.059238 48.083694,55.599754 
	C48.442005,52.250385 48.810642,49.333797 49.473446,46.222076 
	C52.473915,44.674309 55.180214,43.321674 58.127426,42.135433 
	C58.876751,42.887260 59.385166,43.472694 59.913975,44.296322 
	C60.030888,44.858795 60.228958,45.099529 60.638161,45.598251 
	C63.709957,51.102085 66.605179,56.304287 69.651306,61.416580 
	C73.483818,67.848663 78.075737,69.740936 85.350281,68.559746 
	C84.389282,70.810333 83.631721,72.676193 82.874168,74.542061 
	C83.301933,74.808434 83.729706,75.074806 84.157478,75.341179 
	C86.685646,71.825722 89.213806,68.310265 91.832047,64.869278 
	C91.922127,64.943748 92.104637,65.089783 92.104637,65.089783 
z"/>
<path fill="#B50CB4" opacity="1.000000" stroke="none" 
	d="
M378.824768,64.365173 
	C376.842621,55.274132 374.937103,46.579327 373.021942,37.840599 
	C377.986969,35.840225 380.054657,37.387867 380.691467,41.919609 
	C381.155853,45.224155 382.139771,48.455688 382.892059,51.719772 
	C383.440308,51.722095 383.988556,51.724422 384.536804,51.726746 
	C385.435516,48.124763 386.048065,44.413860 387.359314,40.968895 
	C387.971954,39.359215 389.935852,38.263828 391.287323,36.935356 
	C392.494324,38.238487 394.217072,39.345158 394.803558,40.884674 
	C396.121124,44.343319 396.874725,48.016792 397.857910,51.602814 
	C398.378082,51.601482 398.898224,51.600151 399.418365,51.598820 
	C400.216522,48.167557 400.971771,44.725616 401.823181,41.307613 
	C403.002563,36.572838 403.107971,36.538658 409.074677,37.770954 
	C407.516937,45.311321 405.965118,52.870411 404.388184,60.424255 
	C403.980621,62.376507 403.825287,64.483208 402.938202,66.200859 
	C402.246094,67.540863 400.464539,69.365746 399.409607,69.219971 
	C397.908508,69.012543 395.923218,67.457588 395.391510,66.017906 
	C393.938477,62.083466 393.138153,57.907993 392.079315,53.827976 
	C391.420380,53.766632 390.761444,53.705288 390.102478,53.643940 
	C389.081024,57.441101 388.349884,61.353062 386.913300,64.986069 
	C386.215240,66.751427 384.410980,68.879105 382.731293,69.284645 
	C379.554352,70.051682 379.255890,67.103394 378.824768,64.365173 
z"/>
<path fill="#B30EB3" opacity="1.000000" stroke="none" 
	d="
M476.081329,67.460258 
	C474.429504,68.299042 472.792145,69.247772 471.292450,69.065247 
	C470.578979,68.978416 469.659058,66.746048 469.634094,65.469933 
	C469.474915,57.326679 469.557861,49.178989 469.517883,41.032970 
	C469.505859,38.581024 470.074738,36.320194 473.013245,37.103539 
	C474.303192,37.447414 475.212555,39.485146 476.114197,40.871193 
	C476.419098,41.339931 476.022827,42.211494 476.197968,42.827648 
	C476.791595,44.916241 477.118622,48.472664 478.233154,48.754234 
	C481.300140,49.529034 484.729858,49.068878 487.978577,48.733864 
	C488.547058,48.675240 489.178497,46.891178 489.347321,45.834721 
	C489.607330,44.207607 489.092010,42.368744 489.648376,40.901321 
	C490.214508,39.408142 491.679474,38.255745 492.750885,36.954147 
	C493.880280,38.204990 495.941925,39.422810 495.987579,40.712021 
	C496.281555,49.014179 496.280762,57.337204 495.982971,65.639259 
	C495.935425,66.963966 493.906464,68.217583 492.793518,69.504059 
	C491.710876,68.173973 490.545685,66.899406 489.592682,65.482155 
	C489.280975,65.018578 489.525055,64.183861 489.508148,63.519051 
	C489.328583,56.458519 485.215881,53.662754 478.572754,56.342987 
	C477.508789,56.772270 476.471497,58.425026 476.290375,59.641479 
	C475.927002,62.082363 476.163422,64.612541 476.081329,67.460258 
z"/>
<path fill="#B70BB6" opacity="1.000000" stroke="none" 
	d="
M444.263855,45.398689 
	C442.281860,44.312054 440.271393,43.902790 438.529846,42.983879 
	C437.219666,42.292561 436.254456,40.947399 435.135681,39.893299 
	C436.341156,38.907375 437.505768,37.135082 438.759064,37.069981 
	C444.564117,36.768456 450.405548,36.744553 456.205902,37.090759 
	C457.546356,37.170765 458.776611,39.097492 460.057556,40.174427 
	C458.846344,41.141895 457.532562,43.039051 456.441284,42.918701 
	C451.230316,42.344021 450.746216,45.190418 450.897919,49.231842 
	C451.097412,54.546829 450.939056,59.875042 450.945801,65.197556 
	C450.948792,67.567604 450.487640,70.003204 447.532684,69.293571 
	C446.261993,68.988419 444.671265,66.743233 444.593689,65.305603 
	C444.244537,58.837238 444.386200,52.342388 444.263855,45.398689 
z"/>
<path fill="#65972E" opacity="1.000000" stroke="none" 
	d="
M165.502777,41.641239 
	C168.922134,36.749031 173.358704,35.102406 178.739059,36.207302 
	C184.068008,37.301643 187.494888,41.054661 188.042511,46.059269 
	C188.618256,51.320847 188.374786,56.967030 187.034363,62.062408 
	C185.623886,67.424042 180.786545,69.825989 175.455643,69.627525 
	C170.065811,69.426865 166.069931,66.659790 164.272400,61.260796 
	C162.107727,54.759010 162.021988,48.231678 165.502777,41.641239 
M168.168091,62.582787 
	C168.436249,62.889603 168.704422,63.196415 169.002686,63.764076 
	C169.002686,63.764076 169.128479,63.994549 169.300766,64.379272 
	C169.470474,64.622185 169.700348,64.773994 170.268875,64.977432 
	C170.268875,64.977432 170.575439,65.040268 171.000854,65.487968 
	C171.370163,65.662537 171.739456,65.837097 172.290848,66.102776 
	C172.290848,66.102776 172.491547,66.068550 173.175781,66.526611 
	C175.246033,66.375519 177.316284,66.224426 180.027847,65.900177 
	C186.050583,61.488243 188.436722,50.107891 184.240875,44.052971 
	C182.105545,40.971546 179.237183,37.525177 174.947296,38.928043 
	C172.122284,39.851871 168.743576,42.002068 167.622391,44.503761 
	C166.098557,47.903904 166.494034,52.164234 166.022537,56.786854 
	C166.670410,58.535877 167.318298,60.284901 168.006866,62.016022 
	C168.006866,62.016022 167.964569,62.002995 168.168091,62.582787 
z"/>
<path fill="#67972E" opacity="1.000000" stroke="none" 
	d="
M151.209457,40.877686 
	C149.929535,40.739513 148.433182,40.982986 147.405441,40.400139 
	C141.514679,37.059444 134.897293,38.773598 133.395645,45.214539 
	C132.244827,50.150661 132.281418,55.853661 133.569702,60.747009 
	C135.261292,67.172226 141.423492,68.469658 146.981857,64.675339 
	C148.077637,63.927322 149.419342,63.539551 151.202362,62.735481 
	C149.123550,69.856071 140.762909,71.705437 134.703476,67.241425 
	C128.230240,62.472557 125.969078,51.934307 129.903351,44.714123 
	C130.777405,43.110027 131.778717,41.575260 133.130524,39.568710 
	C133.988541,38.736290 134.437485,38.343742 134.886444,37.951195 
	C134.886444,37.951195 134.954056,37.949505 135.186844,37.825172 
	C135.702255,37.535786 135.910583,37.303955 136.044601,37.005348 
	C136.044601,37.005348 135.988693,36.987679 136.286469,36.974384 
	C137.075867,36.655117 137.567490,36.349148 138.059128,36.043175 
	C138.059128,36.043171 138.007889,36.007881 138.445740,36.065628 
	C141.262894,36.103279 143.642166,36.083191 146.021454,36.063103 
	C146.021454,36.063103 145.991074,36.002655 146.175186,36.254505 
	C147.594803,37.308746 148.830322,38.111137 150.065826,38.913528 
	C150.065826,38.913532 150.040253,38.961555 150.173996,39.177727 
	C150.494568,39.654156 150.729492,39.859356 151.012512,40.009499 
	C151.012512,40.009499 151.017899,39.987972 151.047318,40.212753 
	C151.076736,40.437534 151.209457,40.877686 151.209457,40.877686 
z"/>
<path fill="#62902E" opacity="1.000000" stroke="none" 
	d="
M277.036041,69.877159 
	C276.397888,68.566650 275.232117,67.265915 275.207581,65.944031 
	C275.054138,57.668537 275.261780,49.386536 275.123383,41.110481 
	C275.062225,37.453735 276.507935,35.996029 280.119232,36.184731 
	C283.421753,36.357296 286.756195,36.049026 290.040863,36.346642 
	C290.905762,36.425007 291.638519,37.961872 291.726868,38.929817 
	C287.872101,39.021027 284.712524,38.865723 281.578156,39.080040 
	C280.467010,39.156017 278.855652,39.861061 278.430878,40.741318 
	C275.676910,46.448357 278.679810,51.031078 284.895264,50.894112 
	C285.557190,50.879528 286.217743,50.803715 286.878937,50.756302 
	C286.623657,51.641788 286.566040,53.153481 286.079742,53.306969 
	C283.663940,54.069439 279.283386,53.985348 278.990448,55.095463 
	C278.080261,58.544731 278.706268,62.399376 278.704895,66.694160 
	C278.127686,68.153435 277.581848,69.015297 277.036041,69.877159 
z"/>
<path fill="#67992D" opacity="1.000000" stroke="none" 
	d="
M315.702789,38.905697 
	C315.320190,38.960133 314.937561,39.014568 314.062988,39.218102 
	C313.299377,39.514275 313.097351,39.727364 312.964935,40.006462 
	C312.964935,40.006462 313.019165,40.023907 312.752625,40.107986 
	C312.208893,40.456749 311.931702,40.721428 311.654480,40.986103 
	C307.097717,46.456059 306.195892,55.932590 309.654663,62.000820 
	C312.529755,67.044998 318.027588,68.396690 322.838867,65.230019 
	C323.991241,64.471565 325.115570,63.670578 326.780457,62.526585 
	C325.680542,67.858894 320.834900,70.959717 316.480408,69.894989 
	C306.662628,67.494385 301.766754,57.233746 305.701294,45.895718 
	C306.849823,42.586105 310.013062,39.975624 312.961243,37.025093 
	C314.800720,37.354000 315.931763,37.702496 316.827881,38.178329 
	C316.296265,38.505680 315.999512,38.705688 315.702789,38.905697 
z"/>
<path fill="#C8ACD1" opacity="1.000000" stroke="none" 
	d="
M48.094025,56.032539 
	C52.189373,63.059238 56.265022,70.097511 60.385189,77.109634 
	C65.235527,85.364426 71.721809,86.247673 78.974663,79.904755 
	C80.022614,78.988274 81.918083,79.040901 83.543976,78.588097 
	C83.666595,78.531128 83.739319,78.582756 83.361313,78.630844 
	C82.808891,79.163742 82.634491,79.648567 82.460083,80.133385 
	C82.460083,80.133385 82.516243,80.175194 82.299850,80.393425 
	C80.553490,82.194801 79.023529,83.777946 77.493561,85.361092 
	C77.493561,85.361092 77.389099,85.335655 77.029892,85.516678 
	C74.449760,86.198936 72.228821,86.700188 70.007889,87.201431 
	C69.562553,87.146873 69.117218,87.092323 68.015648,86.930046 
	C64.744835,85.075745 62.130257,83.329163 59.515678,81.582581 
	C59.515678,81.582581 59.341881,81.698524 59.255169,81.326050 
	C58.172710,79.432281 57.176964,77.910988 56.181217,76.389702 
	C52.858761,70.468201 49.536308,64.546700 45.963257,58.067196 
	C45.499195,57.008705 45.285728,56.508213 45.449867,56.006428 
	C46.582993,56.014271 47.338509,56.023403 48.094025,56.032539 
z"/>
<path fill="#67992D" opacity="1.000000" stroke="none" 
	d="
M206.893784,40.204784 
	C211.031494,46.735733 215.169205,53.266682 219.306915,59.797626 
	C219.899872,59.700855 220.492828,59.604084 221.085785,59.507313 
	C221.316589,52.599319 221.547394,45.691330 221.913483,38.860619 
	C222.048798,46.393585 222.048798,53.849277 222.048798,61.304966 
	C222.698837,61.293476 223.348877,61.281986 223.998917,61.270496 
	C223.998917,53.511204 223.998917,45.751911 223.998932,37.992619 
	C224.073654,47.738628 224.148376,57.484642 223.863708,67.672119 
	C223.053833,68.331398 222.603363,68.549210 222.152893,68.767029 
	C217.922913,62.284206 213.692932,55.801376 209.237137,48.928345 
	C209.011322,48.538143 208.805634,48.212532 208.805634,48.212532 
	C208.704544,48.043335 208.603439,47.874134 208.230560,47.174248 
	C207.603760,44.497307 207.248764,42.351048 206.893784,40.204784 
z"/>
<path fill="#414141" opacity="1.000000" stroke="none" 
	d="
M536.995056,41.993778 
	C533.342834,42.033432 530.501526,40.342232 530.584534,36.704433 
	C530.627747,34.813183 532.959473,32.897137 534.458496,31.166441 
	C534.870117,30.691139 536.619385,30.546230 536.719421,30.752335 
	C538.426025,34.267658 540.765686,37.748295 541.298645,41.474995 
	C541.730225,44.493202 538.796143,46.068985 534.907288,45.559124 
	C535.670715,44.311749 536.214233,43.423729 536.911011,42.253029 
	C537.064270,41.970341 536.995056,41.993778 536.995056,41.993778 
z"/>
<path fill="#64982C" opacity="1.000000" stroke="none" 
	d="
M349.339020,46.991344 
	C349.326691,47.746338 349.314392,48.501331 349.255585,50.094193 
	C349.253754,55.288139 349.298431,59.644222 349.343140,64.000305 
	C349.320679,64.761810 349.298248,65.523323 348.854126,66.677399 
	C347.891876,67.054329 347.351288,67.038696 346.810699,67.023071 
	C346.776978,58.398125 346.743256,49.773178 346.464996,40.378654 
	C343.480438,38.760998 340.740417,37.912922 338.000397,37.064846 
	C344.102692,36.841316 350.204468,36.576958 356.308655,36.496067 
	C356.673492,36.491234 357.057770,37.954506 356.784363,38.827744 
	C353.874115,39.360558 351.612518,39.800266 349.350922,40.239975 
	C349.340912,40.631233 349.330902,41.022491 349.268555,42.120831 
	C349.257202,44.215721 349.298096,45.603535 349.339020,46.991344 
z"/>
<path fill="#A43DC8" opacity="1.000000" stroke="none" 
	d="
M106.960968,28.875500 
	C106.835518,32.375904 108.542740,36.175064 104.334892,39.793030 
	C104.120766,37.410873 103.906792,35.894604 103.860878,34.373264 
	C103.635818,26.915438 99.917427,23.231962 92.330124,23.032988 
	C90.167877,22.976284 88.004639,22.957869 85.491943,22.623758 
	C85.443092,21.791431 85.744148,21.257242 86.045197,20.723049 
	C84.981941,20.608482 83.918686,20.493916 82.656555,20.313339 
	C82.457687,20.247330 82.066483,20.097075 82.066483,20.097075 
	C86.995995,20.102226 91.925499,20.107378 97.506599,20.369421 
	C99.746689,21.434233 101.335182,22.242153 102.923683,23.050072 
	C102.923683,23.050072 102.950012,23.054256 103.029701,23.295391 
	C103.399017,23.719839 103.688637,23.903154 103.978264,24.086470 
	C103.978264,24.086470 103.981407,24.018785 104.034866,24.275234 
	C104.385071,24.714760 104.681816,24.897835 104.978554,25.080910 
	C104.978554,25.080910 104.982269,25.011322 104.976974,25.297760 
	C105.310158,26.028437 105.648643,26.472673 105.987129,26.916908 
	C105.987129,26.916908 105.956306,27.020033 106.057327,27.319290 
	C106.411469,27.900927 106.664581,28.183306 106.917694,28.465685 
	C106.917694,28.465685 106.869308,28.758686 106.960968,28.875500 
z"/>
<path fill="#C8A0D6" opacity="1.000000" stroke="none" 
	d="
M48.083694,55.599754 
	C47.338509,56.023403 46.582993,56.014271 45.207726,55.773029 
	C43.204082,53.317867 41.820194,51.094814 40.436302,48.871761 
	C38.285641,43.205231 36.134979,37.538700 34.407719,31.430361 
	C35.565445,31.013323 36.299763,31.038095 37.047264,31.407354 
	C36.126247,38.990784 41.636028,43.347393 44.247154,49.189240 
	C45.905388,46.867340 47.231972,45.009823 48.672535,43.694321 
	C48.917435,44.963295 49.048355,45.690254 49.179276,46.417213 
	C48.810642,49.333797 48.442005,52.250385 48.083694,55.599754 
z"/>
<path fill="#434143" opacity="1.000000" stroke="none" 
	d="
M40.079597,49.017036 
	C41.820194,51.094814 43.204082,53.317867 44.830116,55.774323 
	C45.285728,56.508213 45.499195,57.008705 45.752327,57.783012 
	C44.741627,58.864117 43.752140,59.770218 42.630268,60.461468 
	C37.972858,63.331154 34.813057,61.676094 34.337406,56.214596 
	C34.224510,54.918293 33.919468,53.638729 33.608704,51.792347 
	C35.594654,50.938087 37.658772,50.050201 40.079597,49.017036 
M37.502724,53.526707 
	C37.502724,53.526707 37.488445,53.486942 37.502724,53.526707 
z"/>
<path fill="#A717A6" opacity="1.000000" stroke="none" 
	d="
M418.769501,38.756023 
	C423.295593,35.675114 425.064301,36.361713 425.126282,40.983967 
	C425.235596,49.133934 425.134125,57.286514 425.187897,65.437561 
	C425.204071,67.892349 424.787079,69.704315 421.721008,69.647423 
	C418.442932,69.586594 418.596222,67.337555 418.601288,65.128281 
	C418.621155,56.478622 418.654114,47.828991 418.769501,38.756023 
M419.980743,59.397034 
	C419.984741,60.720375 419.738953,62.108074 420.058899,63.350033 
	C420.421997,64.759422 421.291443,66.038368 421.940765,67.374016 
	C422.621307,66.065834 423.854645,64.772469 423.890167,63.446999 
	C424.080658,56.339268 424.061218,49.221294 423.880768,42.112785 
	C423.850739,40.930271 422.670258,39.776962 422.021393,38.610157 
	C421.346100,39.755787 420.132996,40.880478 420.087402,42.050632 
	C419.875183,47.501369 419.985718,52.964680 419.980743,59.397034 
z"/>
<path fill="#414141" opacity="1.000000" stroke="none" 
	d="
M553.531372,27.894573 
	C553.905457,30.361536 553.933350,32.750912 553.911926,35.585785 
	C553.394714,36.197239 552.894592,36.304123 552.464050,36.538704 
	C549.580627,38.109901 546.477173,38.762035 544.574524,35.596790 
	C543.564026,33.915741 543.248169,30.988041 544.019592,29.241928 
	C545.508911,25.870687 548.722900,26.228846 551.756226,27.396940 
	C552.218018,27.574764 552.708191,27.678816 553.531372,27.894573 
z"/>
<path fill="#404040" opacity="1.000000" stroke="none" 
	d="
M527.905151,41.095768 
	C527.831970,45.092960 525.967102,47.556522 522.443115,46.628857 
	C520.414856,46.094940 517.969971,43.643738 517.544861,41.662441 
	C517.223022,40.162334 519.437073,37.032383 521.163879,36.411674 
	C524.438843,35.234447 527.339661,36.596512 527.905151,41.095768 
z"/>
<path fill="#67972E" opacity="1.000000" stroke="none" 
	d="
M251.902344,58.593788 
	C248.594116,53.940266 245.285904,49.286747 241.483276,44.351112 
	C241.645309,42.516983 242.301727,40.964966 242.958160,39.412956 
	C246.556854,45.049980 250.155548,50.687004 254.062546,56.898941 
	C254.937759,58.582497 255.504669,59.691139 256.168121,61.096901 
	C256.621033,61.898335 256.977417,62.402649 257.486877,62.926544 
	C257.640015,62.946129 257.933533,63.041729 258.105530,63.218044 
	C258.516052,63.620701 258.767120,63.832191 259.057800,64.336922 
	C258.389099,65.745064 257.693268,66.845108 256.997437,67.945145 
	C256.997437,67.945145 257.049774,67.713776 257.048157,67.499557 
	C257.004578,67.106918 256.968567,66.927368 256.938568,66.746681 
	C256.777771,66.428169 256.616974,66.109665 256.163757,65.219833 
	C255.871307,64.648506 255.621201,64.317474 255.621201,64.317474 
	C255.137589,63.567638 254.653976,62.817806 253.953308,61.686970 
	C253.736237,61.305965 253.735214,61.260151 253.735214,61.260151 
	C253.593094,61.115620 253.450974,60.971088 253.094391,60.603447 
	C252.879913,60.380344 252.898392,60.386868 252.898392,60.386868 
	C252.747971,60.092155 252.597549,59.797447 252.179703,59.083496 
	C251.912292,58.664257 251.902344,58.593788 251.902344,58.593788 
z"/>
<path fill="#404040" opacity="1.000000" stroke="none" 
	d="
M15.479212,60.382034 
	C15.316037,62.803776 14.893701,64.980553 14.420555,67.419205 
	C14.548260,67.433586 15.732053,67.566864 17.416056,67.756470 
	C15.383801,71.064308 12.459544,71.877419 10.286681,69.950462 
	C8.596074,68.451195 7.283550,65.010887 7.782238,62.901073 
	C8.596478,59.456253 11.632544,58.126194 15.479212,60.382034 
z"/>
<path fill="#414141" opacity="1.000000" stroke="none" 
	d="
M366.147003,104.378990 
	C361.721497,105.307999 359.561829,104.306938 360.634308,99.561249 
	C360.925201,98.273987 360.250244,96.768471 359.964844,95.036995 
	C362.796600,93.241631 365.792358,92.113350 367.742035,96.052437 
	C369.083649,98.763031 371.612518,102.267403 366.147003,104.378990 
z"/>
<path fill="#609229" opacity="1.000000" stroke="none" 
	d="
M259.030701,64.028824 
	C258.767120,63.832191 258.516052,63.620701 258.171631,62.748894 
	C258.059052,54.101891 258.052338,46.100357 258.045624,38.098824 
	C259.030243,37.924858 260.014893,37.750893 261.075409,38.303337 
	C261.127960,45.257137 261.273621,51.492294 260.988251,57.707653 
	C260.890350,59.840172 259.714233,61.923187 259.030701,64.028824 
z"/>
<path fill="#6CA52B" opacity="1.000000" stroke="none" 
	d="
M242.909821,39.270889 
	C242.301727,40.964966 241.645309,42.516983 241.044220,44.198978 
	C241.125870,45.687561 241.152206,47.046169 241.106445,49.329643 
	C241.033066,51.160622 241.031799,52.066727 241.030518,52.972836 
	C241.056122,53.430935 241.081711,53.889034 241.065247,54.919704 
	C241.023193,55.492275 241.044098,55.953743 241.044098,55.953743 
	C241.072205,58.348328 241.100311,60.742908 241.075439,63.823471 
	C241.022446,64.509445 241.039810,64.990173 241.039810,64.990173 
	C241.061523,65.437767 241.083237,65.885353 240.756165,66.447197 
	C240.107544,66.171745 239.552414,65.786545 239.545471,65.391693 
	C239.403198,57.311512 239.229248,49.228432 239.382843,41.152035 
	C239.397583,40.377571 241.529846,39.643379 242.679108,38.890495 
	C242.679108,38.890495 242.861496,39.128830 242.909821,39.270889 
z"/>
<path fill="#404040" opacity="1.000000" stroke="none" 
	d="
M508.616455,40.643951 
	C508.208557,38.953625 507.912140,37.604855 507.615723,36.256084 
	C508.222870,35.978317 508.830048,35.700550 509.437195,35.422783 
	C511.676941,39.724312 513.916687,44.025845 516.200623,48.412281 
	C512.125671,49.769527 511.045563,48.656296 508.616455,40.643951 
z"/>
<path fill="#709F3E" opacity="1.000000" stroke="none" 
	d="
M223.959732,37.750854 
	C223.998917,45.751911 223.998917,53.511204 223.998917,61.270496 
	C223.348877,61.281986 222.698837,61.293476 222.048798,61.304966 
	C222.048798,53.849277 222.048798,46.393585 222.023132,38.470207 
	C222.638489,37.838047 223.279510,37.673569 223.959732,37.750854 
z"/>
<path fill="#709F3E" opacity="1.000000" stroke="none" 
	d="
M204.616135,67.082268 
	C204.255997,67.650520 203.895859,68.218781 203.155182,68.661034 
	C202.613983,68.334114 202.435059,68.151054 202.216766,67.609665 
	C202.219833,66.480911 202.244003,65.728340 202.319977,64.860580 
	C202.431335,64.489273 202.398163,64.245483 202.237854,63.546444 
	C202.220444,57.377285 202.237427,51.675705 202.387909,45.675056 
	C202.687256,44.506119 202.853088,43.636242 203.192245,43.042755 
	C203.760284,44.752850 204.154968,46.186562 204.549652,47.620274 
	C204.563202,47.831711 204.576736,48.043144 204.464752,48.963989 
	C204.431564,55.476353 204.523849,61.279312 204.616135,67.082268 
z"/>
<path fill="#BB7AD1" opacity="1.000000" stroke="none" 
	d="
M42.963085,21.026951 
	C49.946831,20.680983 56.930576,20.335016 64.046402,20.206387 
	C61.753010,21.193026 59.327526,21.962326 56.456642,22.796532 
	C52.135963,22.984327 48.260689,23.107222 44.006683,23.070398 
	C42.914303,22.503466 42.200649,22.096252 41.487000,21.689039 
	C41.487000,21.689039 41.695496,21.700220 41.900417,21.653830 
	C42.391254,21.413944 42.677170,21.220448 42.963085,21.026951 
z"/>
<path fill="#67972E" opacity="1.000000" stroke="none" 
	d="
M242.573975,38.613853 
	C241.529846,39.643379 239.397583,40.377571 239.382843,41.152035 
	C239.229248,49.228432 239.403198,57.311512 239.545471,65.391693 
	C239.552414,65.786545 240.107544,66.171745 240.716827,66.781464 
	C240.835983,67.565384 240.645721,68.129272 240.455444,68.693169 
	C239.890060,68.267693 238.897537,67.897171 238.834488,67.407074 
	C238.583893,65.459328 238.568115,63.474339 238.565399,61.503002 
	C238.555389,54.258823 238.539368,47.013870 238.653152,39.771210 
	C238.669052,38.759327 239.396591,37.758625 239.794708,36.752747 
	C240.686096,37.280903 241.577469,37.809059 242.573975,38.613853 
z"/>
<path fill="#414141" opacity="1.000000" stroke="none" 
	d="
M350.916809,99.418602 
	C350.543152,102.746880 350.074707,105.805679 349.464325,109.791245 
	C346.596558,107.377121 345.174469,104.416748 345.816498,101.012306 
	C345.986908,100.108742 349.074066,99.755203 350.916809,99.418602 
z"/>
<path fill="#293F16" opacity="1.000000" stroke="none" 
	d="
M259.057800,64.336914 
	C259.714233,61.923187 260.890350,59.840172 260.988251,57.707653 
	C261.273621,51.492294 261.127960,45.257137 261.192139,38.571609 
	C261.429810,47.451733 261.776398,56.790985 261.714478,66.127525 
	C261.699646,68.361946 260.535522,70.985619 257.149048,68.235031 
	C257.693268,66.845108 258.389099,65.745064 259.057800,64.336914 
z"/>
<path fill="#383439" opacity="1.000000" stroke="none" 
	d="
M59.409966,81.937637 
	C62.130257,83.329163 64.744835,85.075745 67.680893,86.973129 
	C68.872032,88.915688 69.741699,90.707436 70.714539,92.711761 
	C70.767586,92.637611 70.561882,93.128159 70.406441,93.112717 
	C66.430183,92.717720 59.073261,85.512611 59.409966,81.937637 
z"/>
<path fill="#6AA72E" opacity="1.000000" stroke="none" 
	d="
M277.497803,69.917267 
	C277.581848,69.015297 278.127686,68.153435 278.880005,67.059334 
	C283.649750,66.827095 288.213013,66.827095 292.776276,66.827095 
	C292.828094,67.462410 292.879944,68.097717 292.931763,68.733032 
	C288.278107,71.277542 282.934235,69.447586 277.497803,69.917267 
z"/>
<path fill="#AD63C6" opacity="1.000000" stroke="none" 
	d="
M56.902046,22.731628 
	C59.327526,21.962326 61.753010,21.193026 64.500183,20.267597 
	C70.262329,20.059299 75.702774,20.007126 81.604851,20.026012 
	C82.066483,20.097075 82.457687,20.247330 82.286987,20.422688 
	C78.059181,21.310204 74.002075,22.022362 69.495071,22.818741 
	C64.997467,22.845852 60.949757,22.788740 56.902046,22.731628 
z"/>
<path fill="#B26ACD" opacity="1.000000" stroke="none" 
	d="
M89.899384,61.773933 
	C91.820282,58.381760 93.741180,54.989594 96.185959,51.475071 
	C97.292007,51.649414 97.874176,51.946110 98.359787,52.551926 
	C98.057808,53.472389 97.852379,54.083729 97.646942,54.695068 
	C97.646950,54.695068 97.741013,54.862907 97.559868,54.898472 
	C97.254662,55.270054 97.130608,55.606068 97.006546,55.942085 
	C97.006554,55.942085 96.934052,55.957474 96.751389,56.078125 
	C96.333305,56.396191 96.237297,56.647018 96.280685,56.951256 
	C96.280685,56.951256 95.987579,57.258568 95.682755,57.673164 
	C95.111183,58.677151 94.844444,59.266537 94.367905,60.067223 
	C93.900749,60.807224 93.643387,61.335934 93.386032,61.864639 
	C93.386040,61.864643 93.299950,61.965324 93.130989,62.191216 
	C92.658600,62.635201 92.355171,62.853294 91.764397,62.940929 
	C90.951164,62.464958 90.425278,62.119446 89.899384,61.773933 
z"/>
<path fill="#414141" opacity="1.000000" stroke="none" 
	d="
M24.038813,62.056499 
	C24.276430,63.585335 24.393126,64.789551 24.582504,66.743813 
	C20.252205,64.661880 20.484707,61.288521 20.413927,58.389172 
	C20.390125,57.414120 22.213285,56.393982 23.917891,54.653625 
	C23.917891,57.912392 23.917891,59.822132 24.038813,62.056499 
z"/>
<path fill="#404040" opacity="1.000000" stroke="none" 
	d="
M376.131104,98.204468 
	C375.676666,99.109276 374.972443,100.289909 374.658661,100.193939 
	C372.247345,99.456497 370.614594,93.573151 372.532928,89.283348 
	C373.971161,92.790199 375.016693,95.339592 376.131104,98.204468 
z"/>
<path fill="#52851C" opacity="1.000000" stroke="none" 
	d="
M205.000000,47.526577 
	C204.154968,46.186562 203.760284,44.752850 203.199234,42.617184 
	C203.006165,40.139256 202.979431,38.363281 202.952713,36.587311 
	C204.214035,37.585388 205.475372,38.583469 206.815247,39.893166 
	C207.248764,42.351048 207.603760,44.497307 208.075623,46.922436 
	C207.278458,47.278496 206.364395,47.355686 205.000000,47.526577 
z"/>
<path fill="#679238" opacity="1.000000" stroke="none" 
	d="
M317.062775,38.050987 
	C315.931763,37.702496 314.800720,37.354000 313.309509,36.979084 
	C316.302429,33.200401 319.680786,35.594757 323.576721,37.201782 
	C324.404785,37.704601 324.710815,37.916813 325.016846,38.129025 
	C325.160645,38.367237 325.340424,38.574184 325.866882,39.110870 
	C326.449127,39.729435 326.720642,39.986996 326.992126,40.244556 
	C326.956055,40.593174 326.919983,40.941792 326.520752,41.615143 
	C325.447021,41.927734 324.736420,41.915588 324.025848,41.903442 
	C324.025848,41.903442 323.998108,41.972324 323.922241,41.751579 
	C323.566071,41.340523 323.285736,41.150211 323.005432,40.959896 
	C323.005432,40.959892 322.990479,41.009159 322.911072,40.766106 
	C322.553314,40.329601 322.274963,40.136147 321.996643,39.942696 
	C321.996643,39.942692 322.014465,40.000626 321.813904,39.721802 
	C320.096497,38.978981 318.579651,38.514984 317.062775,38.050987 
z"/>
<path fill="#BC87CE" opacity="1.000000" stroke="none" 
	d="
M41.164986,21.762321 
	C42.200649,22.096252 42.914303,22.503466 43.746437,23.298668 
	C41.587978,26.145395 39.311031,28.604132 37.034084,31.062868 
	C36.299763,31.038095 35.565445,31.013323 34.464066,31.007717 
	C36.345665,27.963125 38.594318,24.899364 41.164986,21.762321 
z"/>
<path fill="#284010" opacity="1.000000" stroke="none" 
	d="
M286.541809,50.616661 
	C286.217743,50.803715 285.557190,50.879528 284.895264,50.894112 
	C278.679810,51.031078 275.676910,46.448357 278.430878,40.741318 
	C278.855652,39.861061 280.467010,39.156017 281.578156,39.080040 
	C284.712524,38.865723 287.872101,39.021027 291.479431,39.081554 
	C289.518127,39.410378 287.105499,39.799644 284.678589,39.936523 
	C281.972626,40.089146 279.148834,39.911934 279.164032,43.801182 
	C279.177460,47.237663 280.000153,50.067310 284.283630,50.083309 
	C284.924438,50.085701 285.564362,50.339520 286.541809,50.616661 
z"/>
<path fill="#2C4119" opacity="1.000000" stroke="none" 
	d="
M257.847229,38.450722 
	C258.052338,46.100357 258.059052,54.101891 257.999664,62.572578 
	C257.933533,63.041729 257.640015,62.946129 257.381866,62.634727 
	C256.772980,61.815483 256.422272,61.307636 256.071564,60.799786 
	C255.504669,59.691139 254.937759,58.582497 254.278870,57.169197 
	C255.118744,55.227501 256.638550,53.668037 256.866791,51.938160 
	C257.439087,47.600761 257.426697,43.186222 257.847229,38.450722 
z"/>
<path fill="#293F16" opacity="1.000000" stroke="none" 
	d="
M202.254395,45.974125 
	C202.237427,51.675705 202.220444,57.377285 202.206772,63.786686 
	C202.210083,64.494507 202.268173,64.975769 202.268173,64.975769 
	C202.244003,65.728340 202.219833,66.480911 202.158295,67.848572 
	C202.120926,68.463669 202.113129,68.955284 202.113129,68.955284 
	C201.729980,65.912117 201.023849,62.868526 201.027832,59.825867 
	C201.037460,52.464836 201.378281,45.104240 201.788971,37.824142 
	C202.079681,40.594585 202.167038,43.284355 202.254395,45.974125 
z"/>
<path fill="#383439" opacity="1.000000" stroke="none" 
	d="
M70.317444,87.348717 
	C72.228821,86.700188 74.449760,86.198936 77.015656,85.568512 
	C77.673225,86.972916 77.985832,88.506493 78.515099,91.102921 
	C75.211624,89.592369 72.919312,88.544189 70.317444,87.348717 
z"/>
<path fill="#52851C" opacity="1.000000" stroke="none" 
	d="
M204.702576,66.613892 
	C204.523849,61.279312 204.431564,55.476353 204.481857,49.281334 
	C204.679306,54.641354 204.734177,60.393436 204.702576,66.613892 
z"/>
<path fill="#383439" opacity="1.000000" stroke="none" 
	d="
M77.898834,85.441864 
	C79.023529,83.777946 80.553490,82.194801 82.315453,80.362091 
	C82.829254,83.246315 82.457832,85.867775 77.898834,85.441864 
z"/>
<path fill="#364F1D" opacity="1.000000" stroke="none" 
	d="
M349.478882,63.619705 
	C349.298431,59.644222 349.253754,55.288139 349.272583,50.471485 
	C349.428955,54.420311 349.521790,58.829708 349.478882,63.619705 
z"/>
<path fill="#38313B" opacity="1.000000" stroke="none" 
	d="
M102.894173,22.699459 
	C101.335182,22.242153 99.746689,21.434233 97.895081,20.409950 
	C100.115273,19.117641 102.244843,18.900509 102.894173,22.699459 
z"/>
<path fill="#364F1D" opacity="1.000000" stroke="none" 
	d="
M337.873230,37.336426 
	C340.740417,37.912922 343.480438,38.760998 346.444702,39.926056 
	C344.685760,40.136799 342.645477,40.275257 340.741150,39.830917 
	C339.630371,39.571735 338.737183,38.380112 337.873230,37.336426 
z"/>
<path fill="#364F1D" opacity="1.000000" stroke="none" 
	d="
M346.707153,67.266174 
	C347.351288,67.038696 347.891876,67.054329 348.838531,67.058044 
	C348.791504,67.854462 348.338409,68.662804 347.885315,69.471146 
	C347.458069,68.817184 347.030823,68.163231 346.707153,67.266174 
z"/>
<path fill="#38313B" opacity="1.000000" stroke="none" 
	d="
M97.991440,54.619179 
	C97.852379,54.083729 98.057808,53.472389 98.588593,52.354679 
	C99.605789,50.896114 100.297623,49.943916 100.989456,48.991718 
	C100.989456,48.991718 101.110405,49.086494 101.173111,49.132687 
	C100.269196,50.967018 99.302567,52.755157 97.991440,54.619179 
z"/>
<path fill="#61863A" opacity="1.000000" stroke="none" 
	d="
M202.387909,45.675056 
	C202.167038,43.284355 202.079681,40.594585 201.974945,37.456062 
	C202.120667,36.931664 202.283783,36.856018 202.699799,36.683842 
	C202.979431,38.363281 203.006165,40.139256 203.025894,42.340797 
	C202.853088,43.636242 202.687256,44.506119 202.387909,45.675056 
z"/>
<path fill="#383439" opacity="1.000000" stroke="none" 
	d="
M56.185753,76.791168 
	C57.176964,77.910988 58.172710,79.432281 59.328533,81.251678 
	C58.389168,80.097404 57.289730,78.645020 56.185753,76.791168 
z"/>
<path fill="#2C4119" opacity="1.000000" stroke="none" 
	d="
M316.827881,38.178329 
	C318.579651,38.514984 320.096497,38.978981 321.837402,39.702644 
	C320.190582,39.728035 318.319702,39.493755 316.075806,39.082588 
	C315.999512,38.705688 316.296265,38.505680 316.827881,38.178329 
z"/>
<path fill="#364F1D" opacity="1.000000" stroke="none" 
	d="
M349.745087,40.190933 
	C351.612518,39.800266 353.874115,39.360558 356.551788,38.968834 
	C354.691650,39.391842 352.415466,39.766869 349.745087,40.190933 
z"/>
<path fill="#2C4119" opacity="1.000000" stroke="none" 
	d="
M145.693039,35.861511 
	C143.642166,36.083191 141.262894,36.103279 138.437164,36.095528 
	C140.448685,35.931767 142.906662,35.795841 145.693039,35.861511 
z"/>
<path fill="#2C4119" opacity="1.000000" stroke="none" 
	d="
M149.973953,38.578403 
	C148.830322,38.111137 147.594803,37.308746 146.146515,36.272469 
	C147.249847,36.773483 148.565964,37.508381 149.973953,38.578403 
z"/>
<path fill="#2C4119" opacity="1.000000" stroke="none" 
	d="
M324.143066,42.153500 
	C324.736420,41.915588 325.447021,41.927734 326.505615,41.877602 
	C325.989166,42.011402 325.124725,42.207478 324.143066,42.153500 
z"/>
<path fill="#364F1D" opacity="1.000000" stroke="none" 
	d="
M349.463470,46.693283 
	C349.298096,45.603535 349.257202,44.215721 349.279846,42.414230 
	C349.424896,43.465439 349.506409,44.930332 349.463470,46.693283 
z"/>
<path fill="#67972E" opacity="1.000000" stroke="none" 
	d="
M241.117340,52.705345 
	C241.031799,52.066727 241.033066,51.160622 241.065582,50.001915 
	C241.132614,50.645496 241.168396,51.541676 241.117340,52.705345 
z"/>
<path fill="#383439" opacity="1.000000" stroke="none" 
	d="
M92.051743,63.071396 
	C92.355171,62.853294 92.658600,62.635201 93.180550,62.235153 
	C93.142258,62.914200 92.885445,63.775204 92.366631,64.862991 
	C92.104637,65.089783 91.922127,64.943748 91.863258,64.578003 
	C91.886841,63.831966 91.969299,63.451679 92.051743,63.071396 
z"/>
<path fill="#383439" opacity="1.000000" stroke="none" 
	d="
M93.713379,61.786694 
	C93.643387,61.335934 93.900749,60.807224 94.722687,60.104801 
	C95.523544,59.953674 95.759804,59.976265 95.996056,59.998852 
	C95.344276,60.568817 94.692497,61.138783 93.713379,61.786694 
z"/>
<path fill="#2C4119" opacity="1.000000" stroke="none" 
	d="
M134.612061,38.076565 
	C134.437485,38.343742 133.988541,38.736290 133.273987,39.278969 
	C133.451508,39.020046 133.894592,38.610989 134.612061,38.076565 
z"/>
<path fill="#609229" opacity="1.000000" stroke="none" 
	d="
M256.902283,66.834076 
	C256.968567,66.927368 257.004578,67.106918 257.063538,67.381950 
	C256.942261,67.318840 256.870758,67.133148 256.902283,66.834076 
z"/>
<path fill="#38313B" opacity="1.000000" stroke="none" 
	d="
M105.901566,26.655100 
	C105.648643,26.472673 105.310158,26.028437 104.942139,25.297043 
	C105.213737,25.471024 105.514870,25.932158 105.901566,26.655100 
z"/>
<path fill="#609229" opacity="1.000000" stroke="none" 
	d="
M253.708710,61.294075 
	C253.735214,61.260151 253.736237,61.305965 253.736145,61.297127 
	C253.736038,61.288292 253.682190,61.327995 253.708710,61.294075 
z"/>
<path fill="#709F3E" opacity="1.000000" stroke="none" 
	d="
M222.426453,68.807571 
	C222.603363,68.549210 223.053833,68.331398 223.751221,68.062378 
	C223.565430,68.290154 223.132706,68.569138 222.426453,68.807571 
z"/>
<path fill="#609229" opacity="1.000000" stroke="none" 
	d="
M251.875656,58.608963 
	C251.902344,58.593788 251.912292,58.664257 251.923370,58.658493 
	C251.934448,58.652729 251.848969,58.624138 251.875656,58.608963 
z"/>
<path fill="#38313B" opacity="1.000000" stroke="none" 
	d="
M95.986313,59.610447 
	C95.759804,59.976265 95.523544,59.953674 94.932495,59.893509 
	C94.844444,59.266537 95.111183,58.677151 95.626617,57.877956 
	C95.909073,58.186111 95.942825,58.704079 95.986313,59.610447 
z"/>
<path fill="#2C4119" opacity="1.000000" stroke="none" 
	d="
M137.779297,36.119503 
	C137.567490,36.349148 137.075867,36.655117 136.288544,37.003624 
	C136.495056,36.762718 136.997253,36.479275 137.779297,36.119503 
z"/>
<path fill="#2C4119" opacity="1.000000" stroke="none" 
	d="
M324.835754,37.918755 
	C324.710815,37.916813 324.404785,37.704601 323.938385,37.261040 
	C324.070251,37.255959 324.362427,37.482224 324.835754,37.918755 
z"/>
<path fill="#61863A" opacity="1.000000" stroke="none" 
	d="
M202.337692,68.941696 
	C202.113129,68.955284 202.120926,68.463669 202.179413,68.224754 
	C202.435059,68.151054 202.613983,68.334114 202.889328,68.688797 
	C203.004013,68.842560 202.562256,68.928101 202.337692,68.941696 
z"/>
<path fill="#2C4119" opacity="1.000000" stroke="none" 
	d="
M150.887207,39.813316 
	C150.729492,39.859356 150.494568,39.654156 150.200256,39.184864 
	C150.350769,39.153099 150.573822,39.366867 150.887207,39.813316 
z"/>
<path fill="#2C4119" opacity="1.000000" stroke="none" 
	d="
M313.151520,39.898994 
	C313.097351,39.727364 313.299377,39.514275 313.786072,39.305382 
	C313.800171,39.450546 313.579193,39.633198 313.151520,39.898994 
z"/>
<path fill="#BC87CE" opacity="1.000000" stroke="none" 
	d="
M42.673534,21.048660 
	C42.677170,21.220448 42.391254,21.413944 41.894775,21.758076 
	C41.917473,21.629263 42.150726,21.349815 42.673534,21.048660 
z"/>
<path fill="#383439" opacity="1.000000" stroke="none" 
	d="
M82.704742,79.883270 
	C82.634491,79.648567 82.808891,79.163742 83.391922,78.598419 
	C83.516823,78.889656 83.233109,79.261406 82.704742,79.883270 
z"/>
<path fill="#2C4119" opacity="1.000000" stroke="none" 
	d="
M135.850494,37.131104 
	C135.910583,37.303955 135.702255,37.535786 135.203430,37.795708 
	C135.182816,37.650330 135.405869,37.439095 135.850494,37.131104 
z"/>
<path fill="#67972E" opacity="1.000000" stroke="none" 
	d="
M241.104691,55.846069 
	C241.044098,55.953743 241.023193,55.492275 241.031586,55.262630 
	C241.185913,55.248005 241.227676,55.483139 241.104691,55.846069 
z"/>
<path fill="#38313B" opacity="1.000000" stroke="none" 
	d="
M106.798416,28.214447 
	C106.664581,28.183306 106.411469,27.900927 106.108871,27.334785 
	C106.265968,27.355085 106.472557,27.659145 106.798416,28.214447 
z"/>
<path fill="#52851C" opacity="1.000000" stroke="none" 
	d="
M208.809662,48.313843 
	C208.805634,48.212532 209.011322,48.538143 209.040039,48.632370 
	C209.068741,48.726593 208.813705,48.415157 208.809662,48.313843 
z"/>
<path fill="#38313B" opacity="1.000000" stroke="none" 
	d="
M104.818054,24.887978 
	C104.681816,24.897835 104.385071,24.714760 104.001038,24.276981 
	C104.161674,24.246531 104.409615,24.470787 104.818054,24.887978 
z"/>
<path fill="#2C4119" opacity="1.000000" stroke="none" 
	d="
M323.161926,41.153183 
	C323.285736,41.150211 323.566071,41.340523 323.956726,41.765385 
	C323.794495,41.808434 323.544952,41.590607 323.161926,41.153183 
z"/>
<path fill="#2C4119" opacity="1.000000" stroke="none" 
	d="
M322.150879,40.136902 
	C322.274963,40.136147 322.553314,40.329601 322.935730,40.758774 
	C322.768463,40.802658 322.523560,40.581528 322.150879,40.136902 
z"/>
<path fill="#2C4119" opacity="1.000000" stroke="none" 
	d="
M311.903717,40.846020 
	C311.931702,40.721428 312.208893,40.456749 312.751099,40.079556 
	C312.728394,40.213337 312.440674,40.459637 311.903717,40.846020 
z"/>
<path fill="#38313B" opacity="1.000000" stroke="none" 
	d="
M97.172173,55.759186 
	C97.130608,55.606068 97.254662,55.270054 97.643730,54.851341 
	C97.733376,55.048435 97.543068,55.317646 97.172173,55.759186 
z"/>
<path fill="#2C4119" opacity="1.000000" stroke="none" 
	d="
M326.839783,40.008736 
	C326.720642,39.986996 326.449127,39.729435 326.036865,39.227943 
	C326.159851,39.246986 326.423645,39.509953 326.839783,40.008736 
z"/>
<path fill="#38313B" opacity="1.000000" stroke="none" 
	d="
M96.413132,56.813248 
	C96.237297,56.647018 96.333305,56.396191 96.758949,56.114403 
	C96.845825,56.264606 96.711288,56.479675 96.413132,56.813248 
z"/>
<path fill="#2C4119" opacity="1.000000" stroke="none" 
	d="
M151.235962,40.759514 
	C151.209457,40.877686 151.076736,40.437534 151.036346,40.211140 
	C151.178604,40.167236 151.267441,40.386101 151.235962,40.759514 
z"/>
<path fill="#609229" opacity="1.000000" stroke="none" 
	d="
M252.875519,60.384834 
	C252.898392,60.386868 252.879913,60.380344 252.888000,60.380169 
	C252.896103,60.379993 252.852646,60.382797 252.875519,60.384834 
z"/>
<path fill="#38313B" opacity="1.000000" stroke="none" 
	d="
M103.822906,23.894794 
	C103.688637,23.903154 103.399017,23.719839 103.026497,23.285713 
	C103.207191,23.233519 103.448509,23.456259 103.822906,23.894794 
z"/>
<path fill="#67972E" opacity="1.000000" stroke="none" 
	d="
M241.101807,64.877304 
	C241.039810,64.990173 241.022446,64.509445 241.032532,64.270325 
	C241.189499,64.256378 241.229889,64.500793 241.101807,64.877304 
z"/>
<path fill="#609229" opacity="1.000000" stroke="none" 
	d="
M255.649734,64.419693 
	C255.621201,64.317474 255.871307,64.648506 255.921890,64.742401 
	C255.972473,64.836296 255.678268,64.521919 255.649734,64.419693 
z"/>
<path fill="#BC87CE" opacity="1.000000" stroke="none" 
	d="
M85.553726,68.175026 
	C78.075737,69.740936 73.483818,67.848663 69.651306,61.416580 
	C66.605179,56.304287 63.709957,51.102085 61.237434,45.370800 
	C62.126923,44.652523 62.526722,44.503246 63.100742,44.550930 
	C65.589645,48.595272 67.904320,52.442654 70.418846,56.622227 
	C71.741898,54.793705 72.774361,53.366787 74.266464,51.971382 
	C75.336746,52.066330 75.947403,52.129761 76.558060,52.193192 
	C76.359566,52.647907 76.105919,53.086960 75.971588,53.559898 
	C75.148315,56.458359 70.863647,58.672337 73.972649,62.334923 
	C76.985748,65.884544 80.883873,66.576378 85.520119,65.299889 
	C85.727379,66.379486 85.640556,67.277252 85.553726,68.175026 
z"/>
<path fill="#B86DD3" opacity="1.000000" stroke="none" 
	d="
M76.781052,51.955757 
	C75.947403,52.129761 75.336746,52.066330 74.341805,51.623215 
	C75.163521,49.115620 76.292137,46.938824 77.596939,44.873329 
	C78.947182,42.735905 78.008629,42.015236 75.633469,41.671482 
	C73.517441,40.804779 71.717468,40.070328 70.367325,39.238338 
	C74.367783,38.731449 77.918404,38.322098 81.979080,37.930229 
	C83.166023,38.012009 83.842918,38.076302 84.519814,38.140594 
	C82.014557,42.666500 79.509300,47.192410 76.781052,51.955757 
z"/>
<path fill="#A551C4" opacity="1.000000" stroke="none" 
	d="
M84.720062,37.845886 
	C83.842918,38.076302 83.166023,38.012009 82.089699,37.484657 
	C83.683136,32.630821 81.976685,28.914570 79.818176,25.120058 
	C80.409157,24.616255 80.740074,24.320555 81.260178,24.030157 
	C81.702522,24.047037 81.955269,24.064384 82.207619,24.087502 
	C85.740501,28.045765 86.441292,32.574646 84.720062,37.845886 
z"/>
<path fill="#C583DC" opacity="1.000000" stroke="none" 
	d="
M85.350281,68.559746 
	C85.640556,67.277252 85.727379,66.379486 85.903610,65.279831 
	C87.116402,64.092606 88.239792,63.107273 89.631287,61.947937 
	C90.425278,62.119446 90.951164,62.464958 91.764404,62.940933 
	C91.969299,63.451679 91.886841,63.831966 91.773178,64.503525 
	C89.213806,68.310265 86.685646,71.825722 84.157478,75.341179 
	C83.729706,75.074806 83.301933,74.808434 82.874168,74.542061 
	C83.631721,72.676193 84.389282,70.810333 85.350281,68.559746 
z"/>
<path fill="#B34FDB" opacity="1.000000" stroke="none" 
	d="
M81.070984,24.024857 
	C80.740074,24.320555 80.409157,24.616255 79.461029,25.038416 
	C75.877533,24.354759 72.911247,23.544640 69.944962,22.734520 
	C74.002075,22.022362 78.059181,21.310204 82.485863,20.488697 
	C83.918686,20.493916 84.981941,20.608482 86.045197,20.723049 
	C85.744148,21.257242 85.443092,21.791431 85.036156,22.534470 
	C84.507866,22.799395 84.085449,22.855469 83.129181,22.806433 
	C82.087212,23.142502 81.579094,23.583679 81.070984,24.024857 
z"/>
<path fill="#AC54CB" opacity="1.000000" stroke="none" 
	d="
M101.063995,48.630508 
	C100.297623,49.943916 99.605789,50.896114 98.685150,52.045555 
	C97.874176,51.946110 97.292007,51.649414 96.410866,51.219723 
	C98.179794,47.285789 100.247696,43.484856 102.315598,39.683918 
	C102.926361,39.955917 103.537117,40.227917 104.147881,40.499916 
	C103.144768,43.089710 102.141655,45.679504 101.063995,48.630508 
z"/>
<path fill="#A43DC8" opacity="1.000000" stroke="none" 
	d="
M81.260178,24.030159 
	C81.579094,23.583679 82.087212,23.142502 82.809113,22.780697 
	C82.873024,23.055176 82.723145,23.250278 82.390442,23.766441 
	C81.955269,24.064384 81.702522,24.047037 81.260178,24.030159 
z"/>
<path fill="#C583DC" opacity="1.000000" stroke="none" 
	d="
M69.917488,39.335876 
	C71.717468,40.070328 73.517441,40.804779 75.179924,41.739994 
	C71.777969,41.952656 68.500221,41.807865 65.258057,42.082745 
	C64.410049,42.154636 63.672626,43.530952 62.136902,44.243347 
	C60.890785,44.138371 60.392181,44.098248 59.893578,44.058128 
	C59.385166,43.472694 58.876751,42.887260 58.147148,41.806709 
	C57.928059,40.652588 57.930157,39.993584 58.393639,39.251999 
	C62.542511,39.224903 66.229996,39.280392 69.917488,39.335876 
z"/>
<path fill="#BC90C9" opacity="1.000000" stroke="none" 
	d="
M57.932259,39.334579 
	C57.930157,39.993584 57.928059,40.652588 57.906235,41.640316 
	C55.180214,43.321674 52.473915,44.674309 49.473446,46.222076 
	C49.048355,45.690254 48.917435,44.963295 48.844395,43.418549 
	C51.912270,41.512032 54.922264,40.423306 57.932259,39.334579 
z"/>
<path fill="#343333" opacity="1.000000" stroke="none" 
	d="
M90.000137,72.000153 
	C89.755074,72.318130 89.509888,72.635956 89.264694,72.953781 
	C89.399193,72.680069 89.533684,72.406349 89.833939,72.066193 
	C89.999695,71.999748 90.000000,72.000000 90.000137,72.000153 
z"/>
<path fill="#BC87CE" opacity="1.000000" stroke="none" 
	d="
M59.913975,44.296322 
	C60.392181,44.098248 60.890785,44.138371 62.145924,44.255852 
	C62.902458,44.333210 62.926517,44.353970 62.926517,44.353970 
	C62.526722,44.503246 62.126923,44.652523 61.127853,45.029259 
	C60.228958,45.099529 60.030888,44.858795 59.913975,44.296322 
z"/>
<path fill="#32352F" opacity="1.000000" stroke="none" 
	d="
M166.066406,56.055664 
	C166.494034,52.164234 166.098557,47.903904 167.622391,44.503761 
	C168.743576,42.002068 172.122284,39.851871 174.947296,38.928043 
	C179.237183,37.525177 182.105545,40.971546 184.240875,44.052971 
	C188.436722,50.107891 186.050583,61.488243 179.212830,65.973999 
	C176.429047,66.054726 174.460297,66.061638 172.491547,66.068550 
	C172.491547,66.068550 172.290848,66.102776 171.958649,65.872536 
	C171.276108,65.441620 170.925766,65.240944 170.575439,65.040268 
	C170.575439,65.040268 170.268875,64.977432 169.997131,64.755280 
	C169.540588,64.337921 169.341614,64.158394 169.128479,63.994549 
	C169.128479,63.994549 169.002686,63.764076 168.844421,63.365223 
	C168.445618,62.645245 168.205093,62.324123 167.964569,62.002998 
	C167.964569,62.002995 168.006866,62.016022 167.996613,61.633743 
	C167.346375,59.519531 166.706390,57.787598 166.066406,56.055664 
z"/>
<path fill="#303D21" opacity="1.000000" stroke="none" 
	d="
M166.044464,56.421257 
	C166.706390,57.787598 167.346375,59.519531 167.976288,61.642696 
	C167.318298,60.284901 166.670410,58.535877 166.044464,56.421257 
z"/>
<path fill="#303D21" opacity="1.000000" stroke="none" 
	d="
M172.833664,66.297577 
	C174.460297,66.061638 176.429047,66.054726 178.892166,66.060577 
	C177.316284,66.224426 175.246033,66.375519 172.833664,66.297577 
z"/>
<path fill="#303D21" opacity="1.000000" stroke="none" 
	d="
M170.788147,65.264114 
	C170.925766,65.240944 171.276108,65.441620 171.867599,65.826981 
	C171.739456,65.837097 171.370163,65.662537 170.788147,65.264114 
z"/>
<path fill="#303D21" opacity="1.000000" stroke="none" 
	d="
M168.066330,62.292892 
	C168.205093,62.324123 168.445618,62.645245 168.829376,63.234802 
	C168.704422,63.196415 168.436249,62.889603 168.066330,62.292892 
z"/>
<path fill="#303D21" opacity="1.000000" stroke="none" 
	d="
M169.214630,64.186913 
	C169.341614,64.158394 169.540588,64.337921 169.857895,64.683914 
	C169.700348,64.773994 169.470474,64.622185 169.214630,64.186913 
z"/>
<path fill="#343333" opacity="1.000000" stroke="none" 
	d="
M536.997559,41.996887 
	C536.995056,41.993778 537.064270,41.970341 537.035645,41.987427 
	C537.006958,42.004513 537.000000,42.000000 536.997559,41.996887 
z"/>
<path fill="#373238" opacity="1.000000" stroke="none" 
	d="
M58.393639,39.251999 
	C54.922264,40.423306 51.912270,41.512032 48.730415,42.876534 
	C47.231972,45.009823 45.905388,46.867340 44.247154,49.189240 
	C41.636028,43.347393 36.126247,38.990784 37.047264,31.407354 
	C39.311031,28.604132 41.587978,26.145395 44.125168,23.458389 
	C48.260689,23.107222 52.135963,22.984327 56.456642,22.796532 
	C60.949757,22.788740 64.997467,22.845852 69.495071,22.818741 
	C72.911247,23.544640 75.877533,24.354759 79.200966,25.246521 
	C81.976685,28.914570 83.683136,32.630821 81.579651,37.467175 
	C77.918404,38.322098 74.367783,38.731449 70.367325,39.238338 
	C66.229996,39.280392 62.542511,39.224903 58.393639,39.251999 
z"/>
<path fill="#343333" opacity="1.000000" stroke="none" 
	d="
M37.495583,53.506824 
	C37.488445,53.486942 37.502724,53.526707 37.495583,53.506824 
z"/>
<path fill="#C204C4" opacity="1.000000" stroke="none" 
	d="
M419.980774,58.910263 
	C419.985718,52.964680 419.875183,47.501369 420.087402,42.050632 
	C420.132996,40.880478 421.346100,39.755787 422.021393,38.610157 
	C422.670258,39.776962 423.850739,40.930271 423.880768,42.112785 
	C424.061218,49.221294 424.080658,56.339268 423.890167,63.446999 
	C423.854645,64.772469 422.621307,66.065834 421.940765,67.374016 
	C421.291443,66.038368 420.421997,64.759422 420.058899,63.350033 
	C419.738953,62.108074 419.984741,60.720375 419.980774,58.910263 
z"/>
<path fill="#609229" opacity="1.000000" stroke="none" 
	d="
M256.168121,61.096905 
	C256.422272,61.307636 256.772980,61.815483 257.228760,62.615147 
	C256.977417,62.402649 256.621033,61.898335 256.168121,61.096905 
z"/>
<path fill="#61863A" opacity="1.000000" stroke="none" 
	d="
M202.319977,64.860580 
	C202.268173,64.975769 202.210083,64.494507 202.241180,64.254265 
	C202.398163,64.245483 202.431335,64.489273 202.319977,64.860580 
z"/>
<path fill="#3E3043" opacity="1.000000" stroke="none" 
	d="
M63.100742,44.550930 
	C62.926517,44.353970 62.902458,44.333210 62.893440,44.320705 
	C63.672626,43.530952 64.410049,42.154636 65.258057,42.082745 
	C68.500221,41.807865 71.777969,41.952656 75.495972,41.872242 
	C78.008629,42.015236 78.947182,42.735905 77.596939,44.873329 
	C76.292137,46.938824 75.163521,49.115620 73.882172,51.591698 
	C72.774361,53.366787 71.741898,54.793705 70.418846,56.622227 
	C67.904320,52.442654 65.589645,48.595272 63.100742,44.550930 
z"/>
</svg>